<svg width="1280" height="832" xmlns="http://www.w3.org/2000/svg" xmlns:xlink="http://www.w3.org/1999/xlink" overflow="hidden"><defs><clipPath id="clip0"><rect x="0" y="0" width="1280" height="832"/></clipPath><clipPath id="clip1"><rect x="13" y="621" width="58" height="59"/></clipPath><clipPath id="clip2"><rect x="13" y="621" width="58" height="59"/></clipPath><clipPath id="clip3"><rect x="13" y="621" width="58" height="59"/></clipPath><clipPath id="clip4"><rect x="319" y="621" width="58" height="59"/></clipPath><clipPath id="clip5"><rect x="319" y="621" width="58" height="59"/></clipPath><clipPath id="clip6"><rect x="319" y="621" width="58" height="59"/></clipPath><clipPath id="clip7"><rect x="641" y="620" width="58" height="59"/></clipPath><clipPath id="clip8"><rect x="641" y="620" width="58" height="59"/></clipPath><clipPath id="clip9"><rect x="641" y="620" width="58" height="59"/></clipPath><clipPath id="clip10"><rect x="943" y="620" width="58" height="59"/></clipPath><clipPath id="clip11"><rect x="943" y="620" width="58" height="59"/></clipPath><clipPath id="clip12"><rect x="943" y="620" width="58" height="59"/></clipPath></defs><g clip-path="url(#clip0)"><rect x="0" y="0" width="1280" height="832.5" fill="#FFFFFF"/><rect x="1.50005" y="314.689" width="1251" height="385.231" stroke="#F4B183" stroke-width="1.33333" stroke-miterlimit="8" fill="none"/><rect x="7.50005" y="608.866" width="1239" height="84.0505" stroke="#000000" stroke-width="1.33333" stroke-miterlimit="8" fill="#C5E0B4" fill-opacity="0.701961"/><rect x="7.50005" y="34.5208" width="1239" height="226.136" stroke="#000000" stroke-width="1.33333" stroke-miterlimit="8" fill="#B4C7E7" fill-opacity="0.701961"/><rect x="7.50005" y="320.693" width="1239" height="280.168" stroke="#000000" stroke-width="1.33333" stroke-miterlimit="8" fill="#F8CBAD" fill-opacity="0.701961"/><text font-family="Arial,Arial_MSFontService,sans-serif" font-weight="400" font-size="32" transform="matrix(1 0 0 1.0006 10.6697 29)">CLIENT<tspan font-size="32" x="1129.41" y="706.575">SERVER</tspan></text><path d="M317.5 1.50095 317.5 795.679" stroke="#000000" stroke-width="1.33333" stroke-miterlimit="8" stroke-dasharray="5.33333 4" fill="none" fill-rule="evenodd"/><path d="M0 0 0.000104987 793.701" stroke="#000000" stroke-width="1.33333" stroke-miterlimit="8" stroke-dasharray="5.33333 4" fill="none" fill-rule="evenodd" transform="matrix(-1 0 0 1.0006 627.5 1.50095)"/><path d="M936.5 1.50095 936.5 795.679" stroke="#000000" stroke-width="1.33333" stroke-miterlimit="8" stroke-dasharray="5.33333 4" fill="none" fill-rule="evenodd"/><text font-family="Arial,Arial_MSFontService,sans-serif" font-weight="400" font-size="27" transform="matrix(1 0 0 1.0006 16.2668 790)">Multi<tspan font-size="27" x="56.3333" y="0">-</tspan>user Interactions<tspan font-size="27" x="308.174" y="0">Data Storage</tspan><tspan font-size="27" x="617.333" y="0">AI</tspan>-based analytics<tspan font-size="27" x="939.048" y="0">Visualization tools</tspan></text><g clip-path="url(#clip1)"><g clip-path="url(#clip2)"><g clip-path="url(#clip3)"><path d="M46.5208 47.7292 46.5208 11.4792C46.5208 7.94721 37.494 6.04167 29 6.04167 20.506 6.04167 11.4792 7.94721 11.4792 11.4792L11.4792 47.7292C11.4792 51.2611 20.506 53.1667 29 53.1667 37.494 53.1667 46.5208 51.2611 46.5208 47.7292ZM29 7.25C38.3362 7.25 45.3125 9.48542 45.3125 11.4792 45.3125 13.4729 38.3362 15.7083 29 15.7083 19.6638 15.7083 12.6875 13.4729 12.6875 11.4792 12.6875 9.48542 19.6638 7.25 29 7.25ZM12.6875 13.5696C15.4238 15.7567 22.3741 16.9167 29 16.9167 35.6259 16.9167 42.5762 15.7567 45.3125 13.5696L45.3125 23.5625C45.3125 25.5562 38.3362 27.7917 29 27.7917 19.6638 27.7917 12.6875 25.5562 12.6875 23.5625ZM12.6875 25.6529C15.4238 27.84 22.3741 29 29 29 35.6259 29 42.5762 27.84 45.3125 25.6529L45.3125 35.6458C45.3125 37.6396 38.3362 39.875 29 39.875 19.6638 39.875 12.6875 37.6396 12.6875 35.6458ZM12.6875 47.7292 12.6875 37.7363C15.4238 39.9233 22.3741 41.0833 29 41.0833 35.6259 41.0833 42.5762 39.9233 45.3125 37.7363L45.3125 47.7292C45.3125 49.7229 38.3362 51.9583 29 51.9583 19.6638 51.9583 12.6875 49.7229 12.6875 47.7292Z" transform="matrix(1 0 0 1.0006 13 621.373)"/><path d="M42.2917 21.75C42.2917 22.4173 41.7507 22.9583 41.0833 22.9583 40.416 22.9583 39.875 22.4173 39.875 21.75 39.875 21.0827 40.416 20.5417 41.0833 20.5417 41.7507 20.5417 42.2917 21.0827 42.2917 21.75Z" transform="matrix(1 0 0 1.0006 13 621.373)"/><path d="M42.2917 33.8333C42.2917 34.5007 41.7507 35.0417 41.0833 35.0417 40.416 35.0417 39.875 34.5007 39.875 33.8333 39.875 33.166 40.416 32.625 41.0833 32.625 41.7507 32.625 42.2917 33.166 42.2917 33.8333Z" transform="matrix(1 0 0 1.0006 13 621.373)"/><path d="M42.2917 45.9167C42.2917 46.584 41.7507 47.125 41.0833 47.125 40.416 47.125 39.875 46.584 39.875 45.9167 39.875 45.2493 40.416 44.7083 41.0833 44.7083 41.7507 44.7083 42.2917 45.2493 42.2917 45.9167Z" transform="matrix(1 0 0 1.0006 13 621.373)"/></g></g></g><rect x="14.5001" y="41.525" width="295" height="83.0499" stroke="#2F528F" stroke-width="1.33333" stroke-miterlimit="8" fill="#DAE3F3"/><text font-family="Arial,Arial_MSFontService,sans-serif" font-weight="400" font-size="24" transform="matrix(1 0 0 1.0006 61.6378 92)">Multi<tspan font-size="24" x="50.6667" y="0">-</tspan>device library</text><rect x="17.5001" y="169.602" width="140" height="72.0433" stroke="#2F528F" stroke-width="1.33333" stroke-miterlimit="8" fill="#DAE3F3"/><text font-family="Arial,Arial_MSFontService,sans-serif" font-weight="400" font-size="24" transform="matrix(1 0 0 1.0006 28.5347 214)">Web Client</text><rect x="167.5" y="170.603" width="140" height="71.0427" stroke="#2F528F" stroke-width="1.33333" stroke-miterlimit="8" fill="#DAE3F3"/><text font-family="Arial,Arial_MSFontService,sans-serif" font-weight="400" font-size="24" transform="matrix(1 0 0 1.0006 209.83 200)">Unity<tspan font-size="24" x="-3.33333" y="28.9826">Client</tspan></text><rect x="324.5" y="41.525" width="295" height="83.0499" stroke="#2F528F" stroke-width="1.33333" stroke-miterlimit="8" fill="#DAE3F3"/><text font-family="Arial,Arial_MSFontService,sans-serif" font-weight="400" font-size="24" transform="matrix(1 0 0 1.0006 382.298 92)">Data logging API</text><rect x="634.5" y="41.525" width="295" height="83.0499" stroke="#2F528F" stroke-width="1.33333" stroke-miterlimit="8" fill="#DAE3F3"/><text font-family="Arial,Arial_MSFontService,sans-serif" font-weight="400" font-size="24" transform="matrix(1 0 0 1.0006 718.81 92)">AI input API</text><rect x="632.5" y="168.601" width="157" height="72.0433" stroke="#2F528F" stroke-width="1.33333" stroke-miterlimit="8" fill="#DAE3F3"/><text font-family="Arial,Arial_MSFontService,sans-serif" font-weight="400" font-size="24" transform="matrix(1 0 0 1.0006 689.294 198)">App<tspan font-size="24" x="-42.6667" y="28.9826">optimization</tspan></text><rect x="944.5" y="41.525" width="295" height="83.0499" stroke="#2F528F" stroke-width="1.33333" stroke-miterlimit="8" fill="#DAE3F3"/><text font-family="Arial,Arial_MSFontService,sans-serif" font-weight="400" font-size="24" transform="matrix(1 0 0 1.0006 1004.95 92)">Web Dashboard</text><rect x="14.5001" y="328.698" width="295" height="84.0505" stroke="#2F528F" stroke-width="1.33333" stroke-miterlimit="8" fill="#FBE5D6"/><text font-family="Arial,Arial_MSFontService,sans-serif" font-weight="400" font-size="24" transform="matrix(1 0 0 1.0006 88.3045 379)">Socket server</text><rect x="14.5001" y="419.752" width="295" height="83.0499" stroke="#2F528F" stroke-width="1.33333" stroke-miterlimit="8" fill="#FBE5D6"/><text font-family="Arial,Arial_MSFontService,sans-serif" font-weight="400" font-size="24" transform="matrix(1 0 0 1.0006 94.9711 470)">Static server</text><rect x="14.5001" y="510.807" width="295" height="83.0499" stroke="#2F528F" stroke-width="1.33333" stroke-miterlimit="8" fill="#FBE5D6"/><text font-family="Arial,Arial_MSFontService,sans-serif" font-weight="400" font-size="24" transform="matrix(1 0 0 1.0006 39.6378 561)">Synchronization server</text><rect x="324.5" y="328.698" width="295" height="84.0505" stroke="#2F528F" stroke-width="1.33333" stroke-miterlimit="8" fill="#FBE5D6"/><text font-family="Arial,Arial_MSFontService,sans-serif" font-weight="400" font-size="24" transform="matrix(1 0 0 1.0006 350.892 379)">Learning Record Store</text><rect x="944.5" y="167.601" width="295" height="72.0433" stroke="#2F528F" stroke-width="1.33333" stroke-miterlimit="8" fill="#DAE3F3"/><text font-family="Arial,Arial_MSFontService,sans-serif" font-weight="400" font-size="24" transform="matrix(1 0 0 1.0006 1021.39 212)">AI output API</text><rect x="798.5" y="167.601" width="135" height="72.0433" stroke="#2F528F" stroke-width="1.33333" stroke-miterlimit="8" fill="#DAE3F3"/><text font-family="Arial,Arial_MSFontService,sans-serif" font-weight="400" font-size="24" transform="matrix(1 0 0 1.0006 812.866 212)">EDA tools</text><rect x="634.5" y="329.698" width="295" height="83.0499" stroke="#2F528F" stroke-width="1.33333" stroke-miterlimit="8" fill="#FBE5D6"/><text font-family="Arial,Arial_MSFontService,sans-serif" font-weight="400" font-size="24" transform="matrix(1 0 0 1.0006 706.814 379)">AI Framework</text><rect x="634.5" y="421.754" width="295" height="82.0493" stroke="#2F528F" stroke-width="1.33333" stroke-miterlimit="8" fill="#FBE5D6"/><text font-family="Arial,Arial_MSFontService,sans-serif" font-weight="400" font-size="24" transform="matrix(1 0 0 1.0006 652.662 471)">Model fine<tspan font-size="24" x="110.667" y="0">-</tspan>tuning server</text><rect x="945.5" y="329.698" width="295" height="83.0499" stroke="#2F528F" stroke-width="1.33333" stroke-miterlimit="8" fill="#FBE5D6"/><text font-family="Arial,Arial_MSFontService,sans-serif" font-weight="400" font-size="24" transform="matrix(1 0 0 1.0006 1015.62 379)">Dataviz server</text><rect x="947.5" y="421.754" width="294" height="83.0499" stroke="#2F528F" stroke-width="1.33333" stroke-miterlimit="8" fill="#FBE5D6"/><text font-family="Arial,Arial_MSFontService,sans-serif" font-weight="400" font-size="24" transform="matrix(1 0 0 1.0006 979.481 472)">Visualization exporter<tspan font-size="21" x="-911.31" y="186.888">Shared state</tspan></text><g clip-path="url(#clip4)"><g clip-path="url(#clip5)"><g clip-path="url(#clip6)"><path d="M46.5208 47.7292 46.5208 11.4792C46.5208 7.94721 37.494 6.04167 29 6.04167 20.506 6.04167 11.4792 7.94721 11.4792 11.4792L11.4792 47.7292C11.4792 51.2611 20.506 53.1667 29 53.1667 37.494 53.1667 46.5208 51.2611 46.5208 47.7292ZM29 7.25C38.3362 7.25 45.3125 9.48542 45.3125 11.4792 45.3125 13.4729 38.3362 15.7083 29 15.7083 19.6638 15.7083 12.6875 13.4729 12.6875 11.4792 12.6875 9.48542 19.6638 7.25 29 7.25ZM12.6875 13.5696C15.4238 15.7567 22.3741 16.9167 29 16.9167 35.6259 16.9167 42.5762 15.7567 45.3125 13.5696L45.3125 23.5625C45.3125 25.5562 38.3362 27.7917 29 27.7917 19.6638 27.7917 12.6875 25.5562 12.6875 23.5625ZM12.6875 25.6529C15.4238 27.84 22.3741 29 29 29 35.6259 29 42.5762 27.84 45.3125 25.6529L45.3125 35.6458C45.3125 37.6396 38.3362 39.875 29 39.875 19.6638 39.875 12.6875 37.6396 12.6875 35.6458ZM12.6875 47.7292 12.6875 37.7363C15.4238 39.9233 22.3741 41.0833 29 41.0833 35.6259 41.0833 42.5762 39.9233 45.3125 37.7363L45.3125 47.7292C45.3125 49.7229 38.3362 51.9583 29 51.9583 19.6638 51.9583 12.6875 49.7229 12.6875 47.7292Z" transform="matrix(1 0 0 1.0006 319 621.373)"/><path d="M42.2917 21.75C42.2917 22.4173 41.7507 22.9583 41.0833 22.9583 40.416 22.9583 39.875 22.4173 39.875 21.75 39.875 21.0827 40.416 20.5417 41.0833 20.5417 41.7507 20.5417 42.2917 21.0827 42.2917 21.75Z" transform="matrix(1 0 0 1.0006 319 621.373)"/><path d="M42.2917 33.8333C42.2917 34.5007 41.7507 35.0417 41.0833 35.0417 40.416 35.0417 39.875 34.5007 39.875 33.8333 39.875 33.166 40.416 32.625 41.0833 32.625 41.7507 32.625 42.2917 33.166 42.2917 33.8333Z" transform="matrix(1 0 0 1.0006 319 621.373)"/><path d="M42.2917 45.9167C42.2917 46.584 41.7507 47.125 41.0833 47.125 40.416 47.125 39.875 46.584 39.875 45.9167 39.875 45.2493 40.416 44.7083 41.0833 44.7083 41.7507 44.7083 42.2917 45.2493 42.2917 45.9167Z" transform="matrix(1 0 0 1.0006 319 621.373)"/></g></g></g><text font-family="Arial,Arial_MSFontService,sans-serif" font-weight="400" font-size="21" transform="matrix(1 0 0 1.0006 374.169 647)">User<tspan font-size="21" x="45" y="0">-</tspan><tspan font-size="21" x="52.1667" y="0">App Interactions</tspan><tspan font-size="21" x="0" y="24.985">Digital school register</tspan></text><g clip-path="url(#clip7)"><g clip-path="url(#clip8)"><g clip-path="url(#clip9)"><path d="M46.5208 47.7292 46.5208 11.4792C46.5208 7.94721 37.494 6.04167 29 6.04167 20.506 6.04167 11.4792 7.94721 11.4792 11.4792L11.4792 47.7292C11.4792 51.2611 20.506 53.1667 29 53.1667 37.494 53.1667 46.5208 51.2611 46.5208 47.7292ZM29 7.25C38.3362 7.25 45.3125 9.48542 45.3125 11.4792 45.3125 13.4729 38.3362 15.7083 29 15.7083 19.6638 15.7083 12.6875 13.4729 12.6875 11.4792 12.6875 9.48542 19.6638 7.25 29 7.25ZM12.6875 13.5696C15.4238 15.7567 22.3741 16.9167 29 16.9167 35.6259 16.9167 42.5762 15.7567 45.3125 13.5696L45.3125 23.5625C45.3125 25.5562 38.3362 27.7917 29 27.7917 19.6638 27.7917 12.6875 25.5562 12.6875 23.5625ZM12.6875 25.6529C15.4238 27.84 22.3741 29 29 29 35.6259 29 42.5762 27.84 45.3125 25.6529L45.3125 35.6458C45.3125 37.6396 38.3362 39.875 29 39.875 19.6638 39.875 12.6875 37.6396 12.6875 35.6458ZM12.6875 47.7292 12.6875 37.7363C15.4238 39.9233 22.3741 41.0833 29 41.0833 35.6259 41.0833 42.5762 39.9233 45.3125 37.7363L45.3125 47.7292C45.3125 49.7229 38.3362 51.9583 29 51.9583 19.6638 51.9583 12.6875 49.7229 12.6875 47.7292Z" transform="matrix(1 0 0 1.0006 641 620.373)"/><path d="M42.2917 21.75C42.2917 22.4173 41.7507 22.9583 41.0833 22.9583 40.416 22.9583 39.875 22.4173 39.875 21.75 39.875 21.0827 40.416 20.5417 41.0833 20.5417 41.7507 20.5417 42.2917 21.0827 42.2917 21.75Z" transform="matrix(1 0 0 1.0006 641 620.373)"/><path d="M42.2917 33.8333C42.2917 34.5007 41.7507 35.0417 41.0833 35.0417 40.416 35.0417 39.875 34.5007 39.875 33.8333 39.875 33.166 40.416 32.625 41.0833 32.625 41.7507 32.625 42.2917 33.166 42.2917 33.8333Z" transform="matrix(1 0 0 1.0006 641 620.373)"/><path d="M42.2917 45.9167C42.2917 46.584 41.7507 47.125 41.0833 47.125 40.416 47.125 39.875 46.584 39.875 45.9167 39.875 45.2493 40.416 44.7083 41.0833 44.7083 41.7507 44.7083 42.2917 45.2493 42.2917 45.9167Z" transform="matrix(1 0 0 1.0006 641 620.373)"/></g></g></g><text font-family="Arial,Arial_MSFontService,sans-serif" font-weight="400" font-size="21" transform="matrix(1 0 0 1.0006 696.172 658)">Model Zoo</text><g clip-path="url(#clip10)"><g clip-path="url(#clip11)"><g clip-path="url(#clip12)"><path d="M46.5208 47.7292 46.5208 11.4792C46.5208 7.94721 37.494 6.04167 29 6.04167 20.506 6.04167 11.4792 7.94721 11.4792 11.4792L11.4792 47.7292C11.4792 51.2611 20.506 53.1667 29 53.1667 37.494 53.1667 46.5208 51.2611 46.5208 47.7292ZM29 7.25C38.3362 7.25 45.3125 9.48542 45.3125 11.4792 45.3125 13.4729 38.3362 15.7083 29 15.7083 19.6638 15.7083 12.6875 13.4729 12.6875 11.4792 12.6875 9.48542 19.6638 7.25 29 7.25ZM12.6875 13.5696C15.4238 15.7567 22.3741 16.9167 29 16.9167 35.6259 16.9167 42.5762 15.7567 45.3125 13.5696L45.3125 23.5625C45.3125 25.5562 38.3362 27.7917 29 27.7917 19.6638 27.7917 12.6875 25.5562 12.6875 23.5625ZM12.6875 25.6529C15.4238 27.84 22.3741 29 29 29 35.6259 29 42.5762 27.84 45.3125 25.6529L45.3125 35.6458C45.3125 37.6396 38.3362 39.875 29 39.875 19.6638 39.875 12.6875 37.6396 12.6875 35.6458ZM12.6875 47.7292 12.6875 37.7363C15.4238 39.9233 22.3741 41.0833 29 41.0833 35.6259 41.0833 42.5762 39.9233 45.3125 37.7363L45.3125 47.7292C45.3125 49.7229 38.3362 51.9583 29 51.9583 19.6638 51.9583 12.6875 49.7229 12.6875 47.7292Z" transform="matrix(1 0 0 1.0006 943 620.373)"/><path d="M42.2917 21.75C42.2917 22.4173 41.7507 22.9583 41.0833 22.9583 40.416 22.9583 39.875 22.4173 39.875 21.75 39.875 21.0827 40.416 20.5417 41.0833 20.5417 41.7507 20.5417 42.2917 21.0827 42.2917 21.75Z" transform="matrix(1 0 0 1.0006 943 620.373)"/><path d="M42.2917 33.8333C42.2917 34.5007 41.7507 35.0417 41.0833 35.0417 40.416 35.0417 39.875 34.5007 39.875 33.8333 39.875 33.166 40.416 32.625 41.0833 32.625 41.7507 32.625 42.2917 33.166 42.2917 33.8333Z" transform="matrix(1 0 0 1.0006 943 620.373)"/><path d="M42.2917 45.9167C42.2917 46.584 41.7507 47.125 41.0833 47.125 40.416 47.125 39.875 46.584 39.875 45.9167 39.875 45.2493 40.416 44.7083 41.0833 44.7083 41.7507 44.7083 42.2917 45.2493 42.2917 45.9167Z" transform="matrix(1 0 0 1.0006 943 620.373)"/></g></g></g><text font-family="Arial,Arial_MSFontService,sans-serif" font-weight="400" font-size="21" transform="matrix(1 0 0 1.0006 997.975 658)">Visualizations DB</text><path d="M163 273.331 163 297.996 162 297.996 162 273.331ZM158.5 274.665 162.5 266.66 166.5 274.665ZM166.5 296.662 162.5 304.667 158.5 296.662Z"/><path d="M473 273.331 473 297.996 472 297.996 472 273.331ZM468.5 274.665 472.5 266.66 476.5 274.665ZM476.5 296.662 472.5 304.667 468.5 296.662Z"/><path d="M782 273.331 782 297.996 781 297.996 781 273.331ZM777.5 274.665 781.5 266.66 785.5 274.665ZM785.5 296.662 781.5 304.667 777.5 296.662Z"/><path d="M1092 273.331 1092 297.996 1091 297.996 1091 273.331ZM1087.5 274.665 1091.5 266.66 1095.5 274.665ZM1095.5 296.662 1091.5 304.667 1087.5 296.662Z"/><path d="M491.966 681.502 492.466 683.377 492.281 683.01 493.78 684.885 493.609 684.717 496.045 686.592 495.902 686.5 499.212 688.25 499.141 688.216 503.201 689.966 503.136 689.941 507.946 691.628 507.888 691.61 513.385 693.173 513.345 693.162 519.341 694.599 519.311 694.593 525.932 695.968 525.903 695.962 532.962 697.212 532.929 697.207 540.362 698.27 540.333 698.266 548.078 699.141 548.046 699.138 564.286 700.45 564.232 700.447 581.034 700.885 580.979 700.885 597.781 700.385 597.719 700.389 613.959 698.889 613.915 698.894 621.661 697.831 621.631 697.836 629.064 696.586 629.03 696.592 636.088 695.155 636.047 695.164 642.606 693.539 642.578 693.546 648.637 691.859 648.589 691.873 654.023 690.061 653.966 690.082 658.775 688.144 658.696 688.18 662.756 686.118 662.68 686.161 665.991 684.098 665.852 684.203 667.865 682.395 669.201 683.884 667.122 685.751 663.701 687.883 659.563 689.984 654.684 691.95 649.197 693.78 643.1 695.478 636.508 697.111 629.412 698.557 621.947 699.812 614.165 700.879 597.872 702.384 581.01 702.886 564.153 702.447 547.869 701.131 540.094 700.253 532.629 699.186 525.54 697.93 518.89 696.549 512.858 695.103 507.313 693.527 502.442 691.818 498.313 690.038 494.893 688.23 492.293 686.229 490.588 684.096 490.034 682.018ZM668.533 683.14 661.382 682.488 670.954 678.385 673.262 688.546Z"/><path d="M0.14834-0.988936 2.77854-0.594406 5.55195 0.623186 8.20837 2.48269 10.7476 5.08702 13.3067 8.34992 15.7855 12.1634 18.2539 16.5939 20.652 21.6425 22.9783 27.2382 25.3013 33.3281 27.5606 39.9807 29.7547 47.1269 31.8845 54.7068 33.9509 62.722 35.9539 71.1719 37.8937 79.9951 39.7711 89.2569 41.5236 98.833 44.7754 118.906 47.6521 140.169 50.0909 162.305 52.0291 185.252 53.5297 208.762 54.4051 232.585 54.7178 256.657 54.4677 280.727 53.7175 304.607 52.5923 328.048 51.0294 350.993 49.0287 373.187 46.7155 394.382 44.0898 414.512 42.7134 424.084 41.2116 433.282 39.6476 442.104 38.0214 450.547 36.3937 458.623 34.6398 466.203 32.886 473.28 31.0683 479.924 29.2486 486.011 27.3621 491.608 25.4092 496.647 23.4485 501.075 21.4193 504.88 19.4349 508.144 17.3404 510.762 16.0738 511.871 14.7568 510.365 15.9565 509.316 15.8341 509.444 17.8329 506.945 17.7593 507.05 19.6956 503.865 19.6678 503.914 21.6666 500.166 21.6346 500.231 23.5709 495.859 23.5528 495.903 25.4892 490.906 25.474 490.948 27.3479 485.388 27.3374 485.421 29.1488 479.363 29.1423 479.385 30.9537 472.764 30.9477 472.788 32.6966 465.729 32.693 465.744 34.4419 458.186 34.4359 458.214 36.0599 450.157 36.0583 450.165 37.6823 441.733 37.6796 441.747 39.2412 432.94 39.2389 432.953 40.738 423.771 40.7351 423.79 42.1093 414.233 42.1075 414.246 44.7309 394.134 44.7284 394.154 47.0395 372.98 47.0377 372.998 49.0364 350.824 49.0347 350.846 50.5963 327.922 50.5951 327.942 51.7194 304.519 51.7188 304.535 52.4683 280.675 52.4679 280.696 52.7177 256.648 52.7178 256.671 52.4055 232.623 52.4061 232.647 51.5316 208.849 51.5329 208.876 50.0338 185.39 50.0354 185.41 48.099 162.487 48.1015 162.512 45.6655 140.4 45.6685 140.425 42.7952 119.187 42.799 119.213 39.551 99.1629 39.5545 99.183 37.8055 89.6262 37.8091 89.6449 35.9352 80.4004 35.9386 80.4165 34.0023 71.6093 34.0059 71.6252 32.0071 63.1928 32.0118 63.2118 29.9506 55.2166 29.9562 55.2375 27.8325 47.6795 27.8392 47.7025 25.653 40.5818 25.6621 40.6099 23.4135 33.9888 23.426 34.0236 21.1149 27.9648 21.1259 27.9923 18.8147 22.4331 18.8349 22.4783 16.4613 17.4813 16.491 17.5389 14.055 13.1666 14.0901 13.2249 11.654 9.47712 11.7056 9.54927 9.20714 6.36368 9.27799 6.44464 6.84195 3.94615 6.98449 4.06728 4.48599 2.31833 4.65747 2.41474 2.09651 1.29042 2.35016 1.36371-0.14834 0.988936ZM15.4154 511.118 20.5929 516.093 10.5562 513.316 15.097 503.945Z" transform="matrix(1.83697e-16 1.0006 1 -1.83807e-16 157 668.402)"/><path d="M0.0971-0.995275 2.72883-0.73852 5.44384-0.0763244 8.14297 1.10866 10.7418 2.66795 13.385 4.66647 15.9624 7.05057 20.9134 12.8268 25.6558 20.0352 30.2529 28.4736 34.5907 38.0294 38.6086 48.5764 42.3092 60.0546 45.6313 72.34 48.5761 85.3096 51.0819 98.9037 53.0865 112.873 54.5271 127.216 55.4666 141.809 55.7798 156.531 55.4666 171.25 54.5898 185.781 53.149 200.188 51.145 214.154 48.7649 227.683 45.8824 240.717 42.6235 253 39.0484 264.478 35.0934 275.025 30.8837 284.575 26.4741 293.016 21.7917 300.23 16.91 305.999 14.4614 308.383 11.8757 310.387 9.33884 311.948 7.0262 312.989 6.20547 311.165 8.4593 310.151 8.34557 310.211 10.7816 308.712 10.6931 308.773 13.1916 306.837 13.1066 306.911 15.4802 304.6 15.4144 304.67 20.224 298.986 20.1486 299.088 24.7708 291.967 24.7232 292.049 29.0956 283.679 29.0669 283.738 33.2519 274.244 33.2306 274.296 37.1658 263.802 37.1473 263.856 40.7077 252.426 40.6959 252.467 43.9439 240.224 43.9341 240.264 46.8074 227.272 46.7989 227.315 49.1725 213.823 49.1675 213.854 51.1663 199.925 51.1611 199.968 52.5977 185.601 52.5946 185.641 53.4691 171.149 53.4675 171.188 53.7798 156.51 53.7798 156.552 53.4675 141.873 53.4693 141.916 52.5324 127.363 52.5353 127.398 51.0987 113.094 51.1038 113.137 49.105 99.2075 49.1114 99.2467 46.6129 85.6924 46.6212 85.7325 43.6855 72.8028 43.6953 72.8424 40.3848 60.5997 40.3984 60.6456 36.7131 49.2149 36.7304 49.2641 32.7328 38.7704 32.7567 38.8277 28.4468 29.3335 28.4792 29.3985 23.9194 21.0285 23.9622 21.0998 19.2775 13.979 19.3536 14.0802 14.4816 8.39613 14.5618 8.47944 12.0633 6.16833 12.1392 6.23189 9.57827 4.29556 9.66688 4.35539 7.16838 2.85629 7.28089 2.91444 4.71993 1.79012 4.88496 1.84599 2.324 1.22137 2.46386 1.24512-0.0971 0.995275ZM6.61584 312.077 10.4674 318.137 1.37417 313.062 8.00592 305.033Z" transform="matrix(1.83697e-16 1.0006 1 -1.83807e-16 786 666.401)"/><path d="M42.9775 679.341 43.6646 682.528 43.5341 682.207 45.5329 685.395 45.386 685.212 48.6341 688.4 48.5043 688.292 53.0016 691.417 52.9127 691.362 58.5968 694.487 58.5291 694.453 65.3999 697.578 65.3461 697.556 73.2788 700.618 73.2331 700.602 82.2902 703.602 82.2633 703.593 92.2572 706.593 92.2265 706.585 103.282 709.522 103.255 709.515 115.185 712.328 115.169 712.324 128.037 715.137 128.016 715.132 141.695 717.82 141.681 717.817 156.172 720.442 156.159 720.44 171.462 723.002 171.448 723 187.438 725.438 187.425 725.436 204.102 727.748 204.094 727.747 221.396 729.997 221.385 729.996 239.311 732.121 239.305 732.12 257.794 734.182 257.781 734.181 276.77 736.056 276.761 736.055 296.187 737.805 296.179 737.805 316.042 739.43 316.031 739.429 336.269 740.866 336.258 740.865 377.733 743.365 377.717 743.365 420.254 745.24 420.236 745.239 463.398 746.364 463.38 746.364 506.916 746.739 506.899 746.739 550.436 746.364 550.417 746.364 593.578 745.177 593.562 745.177 636.099 743.302 636.082 743.303 677.557 740.803 677.544 740.804 697.782 739.304 697.771 739.305 717.697 737.617 717.691 737.618 737.117 735.868 737.105 735.869 756.094 733.931 756.084 733.932 774.511 731.87 774.504 731.871 792.431 729.746 792.416 729.747 809.718 727.435 809.71 727.436 826.387 725.061 826.374 725.063 842.364 722.563 842.353 722.565 857.657 720.002 857.639 720.005 872.131 717.318 872.116 717.321 885.795 714.571 885.779 714.574 898.646 711.762 898.621 711.768 910.551 708.83 910.533 708.835 921.589 705.897 921.558 705.906 931.552 702.906 931.514 702.918 940.571 699.793 940.537 699.806 948.47 696.743 948.409 696.769 955.28 693.581 955.211 693.616 960.896 690.429 960.806 690.485 965.304 687.298 965.175 687.407 968.423 684.157 968.278 684.34 969.182 682.87 970.886 683.919 969.92 685.489 966.529 688.882 961.919 692.149 956.156 695.381 949.22 698.598 941.24 701.679 932.146 704.817 922.118 707.827 911.038 710.771 899.086 713.714 886.198 716.531 872.503 719.284 857.995 721.975 842.678 724.54 826.676 727.041 809.987 729.418 792.674 731.732 774.736 733.858 756.302 735.922 737.302 737.86 717.868 739.611 697.935 741.299 677.685 742.8 636.195 745.301 593.641 747.177 550.462 748.365 506.908 748.74 463.354 748.365 420.175 747.239 377.621 745.364 336.133 742.863 315.884 741.424 296.012 739.799 276.577 738.048 257.578 736.172 239.08 734.108 221.144 731.982 203.832 729.731 187.144 727.417 171.139 724.977 155.822 722.413 141.317 719.785 127.62 717.094 114.735 714.278 102.783 711.46 91.6978 708.515 81.675 705.506 72.5815 702.494 64.5989 699.412 57.6669 696.259 51.9038 693.091 47.294 689.888 43.9014 686.559 41.7466 683.122 41.0224 679.763ZM970.034 683.394 962.859 683.681 971.816 678.364 975.427 688.138Z"/><path d="M348.983 679.366 349.42 681.678 349.29 681.342 350.665 683.592 350.538 683.427 352.724 685.739 352.598 685.626 355.596 687.876 355.504 687.815 359.314 690.065 359.233 690.022 363.856 692.21 363.818 692.193 369.127 694.443 369.068 694.42 375.127 696.545 375.097 696.535 381.843 698.66 381.819 698.653 389.19 700.778 389.161 700.77 397.218 702.832 397.196 702.827 405.816 704.827 405.797 704.823 414.979 706.76 414.961 706.757 424.705 708.632 424.691 708.629 434.934 710.441 434.921 710.439 445.664 712.189 445.653 712.187 456.834 713.875 456.823 713.873 468.441 715.498 468.427 715.496 480.419 716.996 480.411 716.995 492.778 718.433 492.764 718.431 518.561 721.056 518.543 721.055 545.464 723.305 545.444 723.303 573.302 725.053 573.288 725.052 601.771 726.427 601.75 726.427 630.733 727.239 630.714 727.239 659.946 727.489 659.927 727.489 689.159 727.176 689.142 727.177 718.062 726.364 718.042 726.365 746.587 724.99 746.57 724.991 774.429 723.178 774.41 723.18 801.331 720.93 801.311 720.932 827.046 718.244 827.029 718.246 839.396 716.746 839.388 716.747 851.444 715.184 851.434 715.186 863.052 713.561 863.036 713.563 874.216 711.813 874.21 711.814 884.954 710.064 884.934 710.068 895.178 708.193 895.162 708.196 904.844 706.258 904.829 706.261 914.073 704.261 914.052 704.266 922.672 702.204 922.655 702.208 930.65 700.145 930.615 700.155 937.986 697.967 937.962 697.975 944.708 695.787 944.676 695.798 950.735 693.611 950.685 693.63 955.994 691.38 955.937 691.407 960.559 689.094 960.498 689.128 964.308 686.878 964.196 686.955 967.194 684.58 967.088 684.677 969.045 682.607 970.498 683.982 968.492 686.104 965.384 688.566 961.485 690.869 956.803 693.211 951.44 695.484 945.34 697.686 938.566 699.883 931.166 702.079 923.145 704.148 914.506 706.215 905.244 708.219 895.546 710.16 885.285 712.038 874.529 713.79 863.337 715.542 851.705 717.168 839.641 718.732 827.261 720.234 801.508 722.923 774.568 725.175 746.692 726.988 718.128 728.364 689.189 729.177 659.938 729.49 630.687 729.24 601.684 728.427 573.184 727.051 545.308 725.3 518.368 723.048 492.555 720.422 480.176 718.983 468.171 717.481 456.541 715.854 445.349 714.165 434.593 712.413 424.335 710.598 414.575 708.72 405.374 706.779 396.734 704.774 388.65 702.705 381.254 700.572 374.481 698.439 368.377 696.298 363.019 694.028 358.337 691.812 354.44 689.51 351.329 687.176 349.013 684.726 347.489 682.23 347.017 679.738ZM969.771 683.295 962.592 683.207 971.812 678.364 974.91 688.312Z"/></g></svg>